<svg width="31" height="230" viewBox="0 0 31 230" fill="none" xmlns="http://www.w3.org/2000/svg">
<mask id="path-1-inside-1" fill="white">
<path fill-rule="evenodd" clip-rule="evenodd" d="M13 29.8678L13 100.132C5.66128 101.11 0 107.394 0 115C0 122.606 5.66128 128.89 13 129.868L13 200.3C6.15328 201.69 1 207.743 1 215C1 223.284 7.71573 230 16 230C24.2843 230 31 223.284 31 215C31 207.394 25.3387 201.11 18 200.132L18 129.7C24.8467 128.31 30 122.257 30 115C30 107.743 24.8467 101.69 18 100.3L18 29.7C24.8467 28.3101 30 22.2569 30 15C30 6.71573 23.2843 0 15 0C6.71573 0 0 6.71573 0 15C0 22.6062 5.66128 28.89 13 29.8678Z"/>
</mask>
<path fill-rule="evenodd" clip-rule="evenodd" d="M13 29.8678L13 100.132C5.66128 101.11 0 107.394 0 115C0 122.606 5.66128 128.89 13 129.868L13 200.3C6.15328 201.69 1 207.743 1 215C1 223.284 7.71573 230 16 230C24.2843 230 31 223.284 31 215C31 207.394 25.3387 201.11 18 200.132L18 129.7C24.8467 128.31 30 122.257 30 115C30 107.743 24.8467 101.69 18 100.3L18 29.7C24.8467 28.3101 30 22.2569 30 15C30 6.71573 23.2843 0 15 0C6.71573 0 0 6.71573 0 15C0 22.6062 5.66128 28.89 13 29.8678Z" fill="#6A6A6A"/>
<path d="M13 100.132L13.5283 104.097L17 103.635V100.132H13ZM13 29.8678H17L17 26.3654L13.5283 25.9029L13 29.8678ZM13 129.868H17V126.365L13.5283 125.903L13 129.868ZM13 200.3L13.7957 204.22L17 203.57L17 200.3H13ZM18 200.132H14V203.635L17.4717 204.097L18 200.132ZM18 129.7L17.2043 125.78L14 126.43L14 129.7H18ZM18 100.3H14V103.57L17.2043 104.22L18 100.3ZM18 29.7L17.2043 25.7799L14 26.4303V29.7H18ZM17 100.132L17 29.8678H9L9 100.132H17ZM4 115C4 109.425 8.1505 104.814 13.5283 104.097L12.4717 96.1672C3.17206 97.4063 -4 105.362 -4 115H4ZM13.5283 125.903C8.1505 125.186 4 120.575 4 115H-4C-4 124.638 3.17206 132.594 12.4717 133.833L13.5283 125.903ZM17 200.3L17 129.868H9L9 200.3H17ZM5 215C5 209.683 8.77648 205.239 13.7957 204.22L12.2043 196.38C3.53008 198.141 -3 205.803 -3 215H5ZM16 226C9.92487 226 5 221.075 5 215H-3C-3 225.493 5.50659 234 16 234V226ZM27 215C27 221.075 22.0751 226 16 226V234C26.4934 234 35 225.493 35 215H27ZM17.4717 204.097C22.8495 204.814 27 209.425 27 215H35C35 205.362 27.8279 197.406 18.5283 196.167L17.4717 204.097ZM14 129.7L14 200.132H22L22 129.7H14ZM26 115C26 120.317 22.2235 124.761 17.2043 125.78L18.7957 133.62C27.4699 131.859 34 124.197 34 115H26ZM17.2043 104.22C22.2235 105.239 26 109.683 26 115H34C34 105.803 27.4699 98.1408 18.7957 96.38L17.2043 104.22ZM14 29.7L14 100.3H22L22 29.7H14ZM26 15C26 20.317 22.2235 24.761 17.2043 25.7799L18.7957 33.62C27.4699 31.8592 34 24.1967 34 15H26ZM15 4C21.0751 4 26 8.92487 26 15H34C34 4.50659 25.4934 -4 15 -4V4ZM4 15C4 8.92487 8.92487 4 15 4V-4C4.50659 -4 -4 4.50659 -4 15H4ZM13.5283 25.9029C8.1505 25.1864 4 20.5746 4 15H-4C-4 24.6377 3.17206 32.5937 12.4717 33.8328L13.5283 25.9029Z" fill="#FFFA7C" mask="url(#path-1-inside-1)"/>
</svg>
