<svg width="465" height="31" viewBox="0 0 465 31" fill="none" xmlns="http://www.w3.org/2000/svg">
<mask id="path-1-inside-1" fill="white">
<path fill-rule="evenodd" clip-rule="evenodd" d="M435.132 13H237.868C236.89 5.66128 230.606 0 223 0C215.394 0 209.11 5.66128 208.132 13H29.6999C28.3101 6.15328 22.2569 1 15 1C6.71573 1 0 7.71573 0 16C0 24.2843 6.71573 31 15 31C22.6062 31 28.89 25.3387 29.8678 18H208.3C209.69 24.8467 215.743 30 223 30C230.257 30 236.31 24.8467 237.7 18H435.3C436.69 24.8467 442.743 30 450 30C458.284 30 465 23.2843 465 15C465 6.71573 458.284 0 450 0C442.394 0 436.11 5.66128 435.132 13Z"/>
</mask>
<path fill-rule="evenodd" clip-rule="evenodd" d="M435.132 13H237.868C236.89 5.66128 230.606 0 223 0C215.394 0 209.11 5.66128 208.132 13H29.6999C28.3101 6.15328 22.2569 1 15 1C6.71573 1 0 7.71573 0 16C0 24.2843 6.71573 31 15 31C22.6062 31 28.89 25.3387 29.8678 18H208.3C209.69 24.8467 215.743 30 223 30C230.257 30 236.31 24.8467 237.7 18H435.3C436.69 24.8467 442.743 30 450 30C458.284 30 465 23.2843 465 15C465 6.71573 458.284 0 450 0C442.394 0 436.11 5.66128 435.132 13Z" fill="#6A6A6A"/>
<path d="M237.868 13L233.903 13.5283L234.365 17H237.868V13ZM435.132 13V17H438.635L439.097 13.5283L435.132 13ZM208.132 13V17H211.635L212.097 13.5283L208.132 13ZM29.6999 13L25.7799 13.7957L26.4303 17H29.6999V13ZM29.8678 18V14H26.3654L25.9029 17.4717L29.8678 18ZM208.3 18L212.22 17.2043L211.57 14H208.3V18ZM237.7 18V14H234.43L233.78 17.2043L237.7 18ZM435.3 18L439.22 17.2043L438.57 14H435.3V18ZM237.868 17H435.132V9H237.868V17ZM223 4C228.575 4 233.186 8.1505 233.903 13.5283L241.833 12.4717C240.594 3.17206 232.638 -4 223 -4V4ZM212.097 13.5283C212.814 8.1505 217.425 4 223 4V-4C213.362 -4 205.406 3.17206 204.167 12.4717L212.097 13.5283ZM29.6999 17H208.132V9H29.6999V17ZM15 5C20.3171 5 24.761 8.77648 25.7799 13.7957L33.62 12.2043C31.8592 3.53008 24.1967 -3 15 -3V5ZM4 16C4 9.92487 8.92487 5 15 5V-3C4.50659 -3 -4 5.50659 -4 16H4ZM15 27C8.92487 27 4 22.0751 4 16H-4C-4 26.4934 4.50659 35 15 35V27ZM25.9029 17.4717C25.1863 22.8495 20.5746 27 15 27V35C24.6377 35 32.5937 27.8279 33.8328 18.5283L25.9029 17.4717ZM208.3 14H29.8678V22H208.3V14ZM223 26C217.683 26 213.239 22.2235 212.22 17.2043L204.38 18.7957C206.141 27.4699 213.803 34 223 34V26ZM233.78 17.2043C232.761 22.2235 228.317 26 223 26V34C232.197 34 239.859 27.4699 241.62 18.7957L233.78 17.2043ZM435.3 14H237.7V22H435.3V14ZM450 26C444.683 26 440.239 22.2235 439.22 17.2043L431.38 18.7957C433.141 27.4699 440.803 34 450 34V26ZM461 15C461 21.0751 456.075 26 450 26V34C460.493 34 469 25.4934 469 15H461ZM450 4C456.075 4 461 8.92487 461 15H469C469 4.50659 460.493 -4 450 -4V4ZM439.097 13.5283C439.814 8.1505 444.425 4 450 4V-4C440.362 -4 432.406 3.17206 431.167 12.4717L439.097 13.5283Z" fill="#FFFA7C" mask="url(#path-1-inside-1)"/>
</svg>
