<svg width="59" height="62" viewBox="0 0 59 62" fill="none" xmlns="http://www.w3.org/2000/svg">
<path d="M53.9455 31C53.9455 43.8134 43.561 54.2 30.7521 54.2C17.9431 54.2 7.55868 43.8134 7.55868 31C7.55868 18.1866 17.9431 7.80002 30.7521 7.80002C43.561 7.80002 53.9455 18.1866 53.9455 31Z" stroke="white" stroke-width="3.2"/>
<mask id="mask0" mask-type="alpha" maskUnits="userSpaceOnUse" x="2" y="18" width="55" height="25">
<path d="M24.9917 43L24.957 28.4215L17.8066 40.4314H15.2727L8.15703 28.7339V43H2.88099V18.7025H7.53223L16.6264 33.8017L25.5818 18.7025H30.1983L30.2678 43H24.9917ZM46.2027 18.7025C48.3548 18.7025 50.2176 19.0612 51.7911 19.7785C53.3878 20.4959 54.6143 21.514 55.4705 22.8331C56.3267 24.1521 56.7548 25.714 56.7548 27.519C56.7548 29.3008 56.3267 30.8628 55.4705 32.205C54.6143 33.524 53.3878 34.5421 51.7911 35.2595C50.2176 35.9537 48.3548 36.3008 46.2027 36.3008H41.3085V43H35.6854V18.7025H46.2027ZM45.8903 31.719C47.5796 31.719 48.8639 31.3603 49.7432 30.643C50.6225 29.9025 51.0622 28.8612 51.0622 27.519C51.0622 26.1537 50.6225 25.1124 49.7432 24.395C48.8639 23.6545 47.5796 23.2843 45.8903 23.2843H41.3085V31.719H45.8903Z" fill="#FFD089"/>
</mask>
<g mask="url(#mask0)">
<ellipse cx="31.5" cy="30.5" rx="22.5" ry="21.5" fill="white"/>
</g>
</svg>
